Coordinates
version=1
nRows=8
nColumns=40
inDegrees=yes

Units are S.I. units (second, meters, Newtons, ...)
If the header above contains a line with 'inDegrees', this indicates whether rotational values are in degrees (yes) or radians (no).

endheader
time	pelvis_tilt	pelvis_list	pelvis_rotation	pelvis_tx	pelvis_ty	pelvis_tz	hip_flexion_r	hip_adduction_r	hip_rotation_r	knee_angle_r	knee_angle_r_beta	ankle_angle_r	subtalar_angle_r	mtp_angle_r	hip_flexion_l	hip_adduction_l	hip_rotation_l	knee_angle_l	knee_angle_l_beta	ankle_angle_l	subtalar_angle_l	mtp_angle_l	lumbar_extension	lumbar_bending	lumbar_rotation	arm_flex_r	arm_add_r	arm_rot_r	elbow_flex_r	pro_sup_r	wrist_flex_r	wrist_dev_r	arm_flex_l	arm_add_l	arm_rot_l	elbow_flex_l	pro_sup_l	wrist_flex_l	wrist_dev_l
      0.92000000	     -4.31705185	      3.84312880	      4.56857970	      0.64127193	      0.93915371	      0.17165338	     28.56313894	     -9.58049843	    -11.91411628	     59.15217190	      1.03240016	     -0.88556262	    -17.64849316	      0.00000000	     -0.27221414	      6.44995931	    -13.75112828	      4.04159829	      0.07053920	      5.75158622	      8.93288783	      0.00000000	     -1.82668783	     -7.63132204	     -1.60254721	     42.72920432	    -15.73591543	     42.72920432	     75.55344459	     44.96479260	      0.00000000	      0.00000000	     42.72920432	    -15.73591543	     42.72920432	     75.55344459	     44.96479260	      0.00000000	      0.00000000
      0.92500000	     -3.94688398	      3.29579933	      4.96762002	      0.64756961	      0.94010777	      0.17091880	     28.21275489	     -8.84460586	    -12.22776126	     57.35928384	      1.00110836	     -0.42929591	    -17.40079189	      0.00000000	     -1.28539550	      5.84784734	    -13.17303439	      3.56838683	      0.06228010	      5.75335749	      9.24516928	      0.00000000	     -2.29511599	     -6.90671420	     -1.88835031	     42.73608580	    -15.73223332	     42.73608580	     75.54803188	     44.96574108	      0.00000000	      0.00000000	     42.73608580	    -15.73223332	     42.73608580	     75.54803188	     44.96574108	      0.00000000	      0.00000000
      0.93000000	     -4.08856950	      3.52777123	      5.23623990	      0.65369529	      0.93974413	      0.17057700	     28.75636665	     -9.02196873	    -12.15659746	     56.16000639	      0.98017702	     -0.19698371	    -17.29328704	      0.00000000	     -1.59433475	      6.08257216	    -13.08797748	      3.53244453	      0.06165279	      5.83797628	      9.38710235	      0.00000000	     -2.19071424	     -7.11592976	     -1.83212976	     42.73657725	    -15.73197070	     42.73657725	     75.54764697	     44.96580786	      0.00000000	      0.00000000	     42.73657725	    -15.73197070	     42.73657725	     75.54764697	     44.96580786	      0.00000000	      0.00000000
      0.93500000	     -4.24646706	      3.68689103	      5.52302603	      0.65982216	      0.93934533	      0.17022604	     29.25311592	     -9.09982834	    -12.06394670	     54.84816656	      0.95728110	      0.12825903	    -17.16348403	      0.00000000	     -1.90064302	      6.23489750	    -12.91715196	      3.45757905	      0.06034614	      5.90188865	      9.61452188	      0.00000000	     -2.07888621	     -7.25151043	     -1.80304882	     42.73714074	    -15.73166963	     42.73714074	     75.54720584	     44.96588429	      0.00000000	      0.00000000	     42.73714074	    -15.73166963	     42.73714074	     75.54720584	     44.96588429	      0.00000000	      0.00000000
      0.94000000	     -4.23023091	      3.30849537	      5.84167344	      0.66619656	      0.93939668	      0.16964498	     29.31030586	     -8.54592198	    -12.14916075	     53.07882560	      0.92640027	      0.63272286	    -17.01546597	      0.00000000	     -2.47360492	      5.81312134	    -12.56564037	      3.12960114	      0.05462184	      5.98592240	      9.92282403	      0.00000000	     -2.11076748	     -6.76775555	     -2.03873386	     42.73977150	    -15.73026436	     42.73977150	     75.54514857	     44.96623949	      0.00000000	      0.00000000	     42.73977150	    -15.73026436	     42.73977150	     75.54514857	     44.96623949	      0.00000000	      0.00000000
      0.94500000	     -4.33502522	      3.60566836	      6.13579827	      0.67229305	      0.93888801	      0.16920099	     29.72842182	     -8.84755829	    -12.10878677	     51.76257575	      0.90342738	      0.73611854	    -16.93196296	      0.00000000	     -2.81455097	      6.11195503	    -12.43730562	      3.13276706	      0.05467710	      6.10040225	     10.03329686	      0.00000000	     -2.06494323	     -7.01117272	     -1.97328727	     42.74026850	    -15.72999907	     42.74026850	     75.54476074	     44.96630615	      0.00000000	      0.00000000	     42.74026850	    -15.72999907	     42.74026850	     75.54476074	     44.96630615	      0.00000000	      0.00000000
      0.95000000	     -4.47334126	      3.76874423	      6.48383042	      0.67829964	      0.93837497	      0.16872681	     30.09615145	     -8.97269800	    -12.03988063	     50.28462019	      0.87763219	      0.98061076	    -16.89053011	      0.00000000	     -3.12046287	      6.26223351	    -12.17262650	      3.08694674	      0.05387738	      6.15897136	     10.24501415	      0.00000000	     -2.04355666	     -7.12206719	     -1.97040333	     42.74100315	    -15.72960695	     42.74100315	     75.54418768	     44.96640450	      0.00000000	      0.00000000	     42.74100315	    -15.72960695	     42.74100315	     75.54418768	     44.96640450	      0.00000000	      0.00000000
      0.95500000	     -4.05068744	      3.23644886	      6.95891073	      0.68451269	      0.93906811	      0.16762736	     29.45393646	     -8.32630018	    -12.40462556	     48.02237290	      0.83814852	      0.75300579	    -17.36360981	      0.00000000	     -4.07443126	      5.63441645	    -11.55328905	      2.81010258	      0.04904554	      6.24229329	     10.25197000	      0.00000000	     -2.56311527	     -6.38824583	     -2.58148714	     42.74689107	    -15.72646701	     42.74689107	     75.53960949	     44.96718335	      0.00000000	      0.00000000	     42.74689107	    -15.72646701	     42.74689107	     75.53960949	     44.96718335	      0.00000000	      0.00000000
